<svg xmlns="http://www.w3.org/2000/svg" width="189" height="188" viewBox="0 0 189 188">
    <defs>
        <filter id="pxvne2w0sa" width="189" height="188" x="0" y="0" filterUnits="userSpaceOnUse">
            <feOffset dy="3"/>
            <feGaussianBlur result="blur" stdDeviation="3"/>
            <feFlood flood-opacity=".161"/>
            <feComposite in2="blur" operator="in"/>
            <feComposite in="SourceGraphic"/>
        </filter>
    </defs>
    <g>
        <g filter="url(#pxvne2w0sa)" transform="translate(-21112 -11608.177) translate(21112 11608.18)">
            <ellipse cx="85.5" cy="85" fill="#fff" opacity="0.792" rx="85.5" ry="85" transform="translate(9 6)"/>
        </g>
        <text font-family="AppleSDGothicNeoH00" font-size="21px" transform="translate(-21112 -11608.177) translate(21206 11743)">
            <tspan x="-53.697" y="0">실시간 문의</tspan>
        </text>
        <g>
            <path d="M111.738 56.4a11.42 11.42 0 0 0-8.13-3.368h-16.06L98.336 41.9a3.293 3.293 0 0 0 .731-3.605 3.178 3.178 0 0 0-.711-1.063 3.254 3.254 0 0 0-1.106-.732 3.5 3.5 0 0 0-1.25-.224 3.415 3.415 0 0 0-2.378 1L78.345 53.033h-6.6L56.416 37.266a3.407 3.407 0 0 0-2.355-.99 3.837 3.837 0 0 0-1.3.236 3.338 3.338 0 0 0-1.781 1.777 3.314 3.314 0 0 0-.255 1.271 3.279 3.279 0 0 0 .254 1.266 3.241 3.241 0 0 0 .7 1.054L62.5 53.033H46.44a11.5 11.5 0 0 0-11.5 11.5v32.284a11.535 11.535 0 0 0 11.446 11.493h57.228a11.534 11.534 0 0 0 11.492-11.5V64.53a11.416 11.416 0 0 0-3.368-8.13zm-3.277 8.129v32.283a4.856 4.856 0 0 1-4.853 4.853H46.4a4.821 4.821 0 0 1-3.429-1.421 4.9 4.9 0 0 1-1.42-3.432V64.53a4.886 4.886 0 0 1 1.418-3.43 4.822 4.822 0 0 1 3.431-1.424h57.211a4.809 4.809 0 0 1 3.429 1.424 4.875 4.875 0 0 1 1.421 3.43z" transform="translate(-21112 -11608.177) translate(21131.057 11602.724)"/>
            <path d="M101.608 74.4a3.261 3.261 0 0 0-1.082-.682 3.176 3.176 0 0 0-1.236-.2h-.057a3.363 3.363 0 0 0-2.138 1.009L85.759 86.546 75.193 75.532 53.242 95.906a3.4 3.4 0 0 0-.732 1.075 3.306 3.306 0 0 0-.254 1.267 3.342 3.342 0 0 0 .259 1.282 3.29 3.29 0 0 0 4.341 1.782 3.139 3.139 0 0 0 1.014-.7l16.935-15.769L85.7 96.23l15.931-17.1a3.334 3.334 0 0 0 .72-3.64 3.418 3.418 0 0 0-.743-1.09z" transform="translate(-21112 -11608.177) translate(21131.057 11602.724) translate(-2.549 -5.483)"/>
        </g>
    </g>
</svg>
