<svg xmlns="http://www.w3.org/2000/svg" width="35.918" height="35.918" viewBox="0 0 35.918 35.918">
    <defs>
        <style>
            .cls-1{fill:#939393}
        </style>
    </defs>
    <g id="그룹_2285">
        <path id="패스_1856" d="M41.668 20.586a17.959 17.959 0 1 0 17.959 17.959 17.979 17.979 0 0 0-17.959-17.959zm0 33.141a15.182 15.182 0 1 1 15.183-15.182 15.2 15.2 0 0 1-15.183 15.182z" class="cls-1" transform="translate(-23.709 -20.586)"/>
        <path id="패스_1857" d="M65.09 75.66a1.388 1.388 0 0 0-1.39-1.36H41.479a1.388 1.388 0 0 0-1.385 1.473A12.812 12.812 0 0 0 53.218 88.21a11.93 11.93 0 0 0 7.988-2.873c3.611-3.237 3.919-7.846 3.884-9.677zm-17.86 8.012a6.627 6.627 0 0 1 5.457-.891 1.39 1.39 0 0 0 .753-.007 6.2 6.2 0 0 1 5.384.923 10.332 10.332 0 0 1-11.594-.025zm13.5-2.021a8.984 8.984 0 0 0-7.686-1.644 9.374 9.374 0 0 0-3.387-.153 9.512 9.512 0 0 0-4.516 1.9 10.681 10.681 0 0 1-2.086-4.683h19.2a10.518 10.518 0 0 1-1.529 4.58z" class="cls-1" transform="translate(-35.037 -57.727)"/>
        <path id="패스_1858" d="M50.909 56.139H55.2a1.388 1.388 0 1 0 0-2.777h-4.291a1.388 1.388 0 0 0 0 2.777z" class="cls-1" transform="translate(-41.558 -43.25)"/>
        <path id="패스_1859" d="M93.409 56.139H97.7a1.388 1.388 0 0 0 0-2.777h-4.291a1.388 1.388 0 1 0 0 2.777z" class="cls-1" transform="translate(-70.946 -43.25)"/>
    </g>
</svg>
