<svg xmlns="http://www.w3.org/2000/svg" width="35.91" height="35.909" viewBox="0 0 35.91 35.909">
    <defs>
        <style>
            .cls-1{fill:#939393}
        </style>
    </defs>
    <g id="그룹_2296">
        <g id="그룹_2290" transform="translate(.001)">
            <path id="패스_1864" d="M49.926 64.312A17.955 17.955 0 1 1 67.88 46.358a17.975 17.975 0 0 1-17.954 17.954zm0-32.7a14.742 14.742 0 1 0 14.742 14.746 14.758 14.758 0 0 0-14.742-14.742z" class="cls-1" transform="translate(-31.971 -28.403)"/>
        </g>
        <g id="그룹_2291" transform="translate(9.439 10.393)">
            <path id="패스_1865" d="M62.751 63.693a1.6 1.6 0 0 1-1.181-.518l-2.734-2.965a1.606 1.606 0 1 1 2.364-2.177L63.932 61a1.606 1.606 0 0 1-1.181 2.7z" class="cls-1" transform="translate(-58.411 -57.515)"/>
        </g>
        <g id="그룹_2292" transform="translate(20.373 10.392)">
            <path id="패스_1866" d="M90.644 64.051a1.606 1.606 0 0 1-1.224-2.646l2.819-3.324a1.607 1.607 0 0 1 2.45 2.079l-2.819 3.324a1.6 1.6 0 0 1-1.226.567z" class="cls-1" transform="translate(-89.038 -57.515)"/>
        </g>
        <g id="그룹_2293" transform="translate(6.339 18.071)">
            <path id="패스_1867" d="M51.332 88.7a1.607 1.607 0 0 1-1.452-2.292 12.788 12.788 0 0 1 22.887-.6 1.606 1.606 0 1 1-2.829 1.523 9.575 9.575 0 0 0-17.152.447 1.607 1.607 0 0 1-1.454.922z" class="cls-1" transform="translate(-49.726 -79.024)"/>
        </g>
        <g id="그룹_2294" transform="translate(21.479 19.76)">
            <path id="패스_1868" d="M93.029 91.712a.892.892 0 0 1-.891-.929l.252-6.172a.892.892 0 0 1 1.4-.7l3.4 2.347a.892.892 0 0 1 .138 1.35l-3.648 3.825a.892.892 0 0 1-.651.279zm1.077-5.412l-.089 2.187 1.293-1.355z" class="cls-1" transform="translate(-92.137 -83.755)"/>
        </g>
        <g id="그룹_2295" transform="translate(8.411 20.335)">
            <path id="패스_1869" d="M60.542 93.249a.893.893 0 0 1-.565-.2l-4.118-3.371a.892.892 0 0 1-.021-1.363l3.121-2.727a.892.892 0 0 1 1.468.528l1 6.1a.892.892 0 0 1-.88 1.036zm-2.736-4.286l1.474 1.207-.357-2.183z" class="cls-1" transform="translate(-55.532 -85.366)"/>
        </g>
    </g>
</svg>
