<svg xmlns="http://www.w3.org/2000/svg" width="255.727" height="234.13" viewBox="0 0 255.727 234.13">
    <defs>
        <style>
            .cls-2{fill:none;stroke:#070707;stroke-linecap:round;stroke-linejoin:round;stroke-width:15px}
        </style>
    </defs>
    <g id="그룹_2992" transform="translate(-1663.096 -145.939)">
        <g id="그룹_2776" transform="translate(1720.875 132.439)">
            <g id="그룹_2333" transform="translate(0 21)">
                <g id="그룹_1744">
                    <path id="패스_1022" fill="#ff3631" d="M3506.172 1296.254l-38.049-.766q-2.009-17.5-4.015-34.993-11.187 20.076-22.372 40.156-4.3-16.922-8.605-33.844-8.889 12.619-17.782 25.239l-50.479-37.859q-8.892 8.892-17.784 17.781l43.023 54.5-59.657-6.884-14.341 29.256 90.635 39.582q-15.491 34.989-30.978 69.982l21.225 14.916 37.288-77.441h22.944l-15.488 71.7q12.619 2.01 25.239 4.016l13.768-60.8 25.814 2.866q-.196-58.705-.386-117.407z" transform="translate(-3316.109 -1254.186)"/>
                </g>
                <path id="패스_1021" d="M3506.172 1296.254l-38.049-.766q-2.009-17.5-4.015-34.993-11.187 20.076-22.372 40.156-4.3-16.922-8.605-33.844-8.889 12.619-17.782 25.239l-50.479-37.859q-8.892 8.892-17.784 17.781l43.023 54.5-59.657-6.884-14.341 29.256 90.635 39.582q-15.491 34.989-30.978 69.982l21.225 14.916 37.288-77.441h22.944l-15.488 71.7q12.619 2.01 25.239 4.016l13.768-60.8 25.814 2.866q-.196-58.705-.386-117.407z" class="cls-2" transform="translate(-3316.108 -1254.187)"/>
            </g>
        </g>
        <g id="그룹_2777" transform="translate(1672.283 155.692)">
            <path id="패스_1023" d="M3317.317 1247.945q3.742 9.79 7.487 19.58" class="cls-2" transform="translate(-3296.007 -1247.945)"/>
            <path id="패스_1024" d="M3305.067 1263.174l23.612 6.335" class="cls-2" transform="translate(-3305.067 -1229.772)"/>
            <path id="패스_1025" d="M13.245 1.727L0 0" class="cls-2" transform="rotate(-22 164.758 17.765)"/>
        </g>
    </g>
</svg>
