<svg xmlns="http://www.w3.org/2000/svg" width="1923" height="901" viewBox="0 0 1923 901">
    <defs>
        <style>
            .cls-1{fill:#d2479d}.cls-3,.cls-4,.cls-7{fill:none}.cls-3,.cls-4{stroke:#070707}.cls-4{stroke-miterlimit:10}.cls-3,.cls-7{stroke-width:10px}.cls-3,.cls-4,.cls-7{stroke-linecap:round}.cls-3,.cls-7{stroke-linejoin:round}.cls-4{stroke-width:13px}.cls-7{stroke:#000}
        </style>
    </defs>
    <g id="그룹_3057" transform="translate(1 -3209)">
        <g id="그룹_2998">
            <g id="그룹_2772" transform="translate(169.172 3437.491)">
                <path id="패스_1014" d="M3393.632 406.53l2.32-1.763q-.5-10.325-.995-20.651l-77.929 2.863 1.591 11.133s9.3 2.583 14.631 7.634c5.189 4.919 6.134 11.719 6.362 13.36 1.376 9.915-3.456 20.8-12.088 25.445a20.831 20.831 0 0 1-7.3 2.3l-.328 20.606 79.2-.636-.318-18.13c-1.381-.776-11.41-6.628-13.359-18.448a27.745 27.745 0 0 1 8.218-23.709z" class="cls-1" transform="translate(-3241.092 -360.137)"/>
                <path id="패스_1015" d="M3337.438 556.866l20.052-.873c3.917-8.728 1.315-17.966-4.726-21.6-5.244-3.158-11.381-1.073-12.489-.676l-9.788-2.363 5.738-22.615-31.392-23.291 121.179 1.351 8.1-26.666q8.437 7.764 16.877 15.527l-21.266 33.08 13.485 17.25a42.2 42.2 0 0 1-9.309 5.12c-8.664 3.416-13.375 1.874-16.757 5.121-2.092 2.007-4.069 6.225-1.862 16.291l90.3.466-24.2-46.546a64.161 64.161 0 0 0 14.429-29.325c4.932-25.168-7.71-44.709-10.706-49.339-19.693-30.438-55.852-33.642-60.51-33.978l-2.328-27a237.33 237.33 0 0 0-90.764.931 230.2 230.2 0 0 0-31.186 8.844l-1.862 25.135c-4.992 2.274-37.5 17.716-46.081 52.6-1.776 7.223-7.568 30.772 6.982 51.2 10.087 14.161 24.571 19.272 30.255 20.945l-7.912 29.325 55.742 1.091c-1.588-9.345-4.9-12.788-7.8-14.124-7.322-3.369-17.538 4.137-20.48.465-.822-1.026-.652-2.4-.465-3.724 1.687-11.958 4.616-18.6 4.655-22.342.05-4.938-4.855-12.022-27.927-20.945" class="cls-1" transform="translate(-3249.732 -362.866)"/>
                <path id="패스_1016" d="M3439.912 471.007q-4.98 12.8-9.959 25.61 9.136 12.227 18.275 24.454a46.591 46.591 0 0 1-13.021 3.762c-6.676.9-10.339-.122-12.73 2.314-1.482 1.511-2.711 4.591-.865 11.629" class="cls-1" transform="translate(-3227.783 -348.981)"/>
                <path id="패스_1017" d="M3301.323 434.011c.816.886 8.371 8.813 19.679 7.6a23.659 23.659 0 0 0 19.417-15.43" class="cls-1" transform="translate(-3243.108 -354.737)"/>
                <path id="패스_1018" d="M3304.5 411.515a15.6 15.6 0 0 1 5.308-11.5 15.32 15.32 0 0 1 10.426-3.492" class="cls-1" transform="translate(-3242.701 -358.547)"/>
                <path id="패스_1019" d="M3412.037 434.52c-.472.692-6.692 9.508-16.339 8.948a16.519 16.519 0 0 1-7.97-2.686" class="cls-1" transform="translate(-3232.015 -353.666)"/>
                <path id="패스_1020" d="M3419.917 418.176c-.526-11.094-8.06-19.73-16.97-20.941-8.543-1.162-15.037 4.954-15.976 5.867" class="cls-1" transform="translate(-3232.112 -358.472)"/>
            </g>
            <g id="그룹_2773" transform="translate(169.172 3437.491)">
                <path id="패스_1014-2" fill="none" stroke="#070707" stroke-miterlimit="10" stroke-width="10px" d="M3393.632 406.53l2.32-1.763q-.5-10.325-.995-20.651l-77.929 2.863 1.591 11.133s9.3 2.583 14.631 7.634c5.189 4.919 6.134 11.719 6.362 13.36 1.376 9.915-3.456 20.8-12.088 25.445a20.831 20.831 0 0 1-7.3 2.3l-.328 20.606 79.2-.636-.318-18.13c-1.381-.776-11.41-6.628-13.359-18.448a27.745 27.745 0 0 1 8.218-23.709z" transform="translate(-3241.092 -360.137)"/>
                <path id="패스_1015-2" d="M3337.438 556.866l20.052-.873c3.917-8.728 1.315-17.966-4.726-21.6-5.244-3.158-11.381-1.073-12.489-.676l-9.788-2.363 5.738-22.615-31.392-23.291 121.179 1.351 8.1-26.666q8.437 7.764 16.877 15.527l-21.266 33.08 13.485 17.25a42.2 42.2 0 0 1-9.309 5.12c-8.664 3.416-13.375 1.874-16.757 5.121-2.092 2.007-4.069 6.225-1.862 16.291l90.3.466-24.2-46.546a64.161 64.161 0 0 0 14.429-29.325c4.932-25.168-7.71-44.709-10.706-49.339-19.693-30.438-55.852-33.642-60.51-33.978l-2.328-27a237.33 237.33 0 0 0-90.764.931 230.2 230.2 0 0 0-31.186 8.844l-1.862 25.135c-4.992 2.274-37.5 17.716-46.081 52.6-1.776 7.223-7.568 30.772 6.982 51.2 10.087 14.161 24.571 19.272 30.255 20.945l-7.912 29.325 55.742 1.091c-1.588-9.345-4.9-12.788-7.8-14.124-7.322-3.369-17.538 4.137-20.48.465-.822-1.026-.652-2.4-.465-3.724 1.687-11.958 4.616-18.6 4.655-22.342.05-4.938-4.855-12.022-27.927-20.945" class="cls-3" transform="translate(-3249.732 -362.866)"/>
                <path id="패스_1016-2" d="M3439.912 471.007q-4.98 12.8-9.959 25.61 9.136 12.227 18.275 24.454a46.591 46.591 0 0 1-13.021 3.762c-6.676.9-10.339-.122-12.73 2.314-1.482 1.511-2.711 4.591-.865 11.629" class="cls-3" transform="translate(-3227.783 -348.981)"/>
                <path id="패스_1017-2" d="M3301.323 434.011c.816.886 8.371 8.813 19.679 7.6a23.659 23.659 0 0 0 19.417-15.43" class="cls-4" transform="translate(-3243.108 -354.737)"/>
                <path id="패스_1018-2" d="M3304.5 411.515a15.6 15.6 0 0 1 5.308-11.5 15.32 15.32 0 0 1 10.426-3.492" class="cls-4" transform="translate(-3242.701 -358.547)"/>
                <path id="패스_1019-2" fill="none" stroke="#070707" stroke-linecap="round" stroke-miterlimit="10" stroke-width="10px" d="M3412.037 434.52c-.472.692-6.692 9.508-16.339 8.948a16.519 16.519 0 0 1-7.97-2.686" transform="translate(-3232.015 -353.666)"/>
                <path id="패스_1020-2" d="M3419.917 418.176c-.526-11.094-8.06-19.73-16.97-20.941-8.543-1.162-15.037 4.954-15.976 5.867" class="cls-4" transform="translate(-3232.112 -358.472)"/>
            </g>
            <g id="그룹_2774" transform="translate(137.625 3397.188)">
                <path id="사각형_106-2" fill="none" stroke="#000" stroke-linecap="round" stroke-linejoin="round" stroke-width="13px" d="M0 0H315.958V278.331H0z"/>
            </g>
            <g id="그룹_2775" transform="translate(137.625 3397.188)">
                <path id="사각형_106-2-2" d="M0 0H315.958V278.331H0z" class="cls-7"/>
            </g>
            <path id="패스_2019" d="M336.546 44.094c.833 11.012 3.788 17.86 5.974 26.6q5.021 20.058 10.036 40.117c.841-9.933 4.573-19.883 5.414-29.814.814-9.586 4.908-26.73 7.281-37.19 6.577 17.538 2.953 50.13 14.354 67.516 2.912-8.583 3.276-19.379 5.825-27.751 3.4-11.175 8.87-26.307 9.4-37.512.131 22.293 7.452 40.516 16.682 63.869 5.121-17.345 3.876-27.072 6.164-46.812.442-3.819 3.35-12.682 5.846-17.831 1.708 17.168 13.055 44.565 20.335 65.48 5.019-15.893 8.972-42.927 14.172-65.242 1.9 12.806 8.112 23.888 12.274 43.628 1.107 5.263 2.7 14.59 8.319 21.456 2.4-2.844 4-10.26 4.711-13.124 4.442-17.919 7.352-31.362 13.354-51.532 5.753 3.8 12.654 47.06 20.486 65.4-1.715-12.613 2.49-26.087 7.214-38.653 3.1-8.259 5.822-14.018 8.913-23.784 2.869 4.594 9.6 48.818 16.048 62.437 2.933-2.183 17.155-46.367 26.625-63.685-.171-.465 8.207 50.85 8.323 65.084 1.5-2.483 5.786-17.2 6.238-16.88 7.19-13.589 10.4-32.469 19.97-48.348 4.991 19.74 15.129 47.55 12.689 65.227 8.787-18.837 11.185-45.818 19.968-64.655 1.641 18.212 9.3 45.693 10.29 64.655" class="cls-7" transform="translate(155.375 3547.077)"/>
        </g>
        <g id="그룹_3000">
            <g id="그룹_2999">
                <g id="그룹_2770" transform="translate(1502.273 3248.369)">
                    <g id="그룹_1732">
                        <path id="패스_959" d="M344.145 359.425a158.5 158.5 0 0 1 25.467-32.055" class="cls-7" transform="translate(-340.827 -324.503)"/>
                        <path id="패스_960" d="M357.35 359.438q12.7-15.376 25.408-30.748" class="cls-7" transform="translate(-328.905 -323.311)"/>
                        <path id="패스_961" d="M371.653 359.572q8.1-8.748 16.2-17.5 7.333-7.918 14.659-15.833" class="cls-7" transform="translate(-315.992 -325.523)"/>
                        <path id="패스_962" d="M383.8 361.988a462.829 462.829 0 0 0 32.123-33.541" class="cls-7" transform="translate(-305.027 -323.53)"/>
                        <path id="패스_963" d="M401.9 361.714q17.616-17.391 35.231-34.776c.278-.272.658-.567 1.016-.409s.015.885-.236.588" class="cls-7" transform="translate(-288.687 -325.302)"/>
                        <path id="패스_964" d="M416.057 361.856c11.506-11.961 26.19-20.834 36.156-34.108" class="cls-7" transform="translate(-275.903 -324.161)"/>
                        <path id="패스_965" d="M430.9 368.329q18.327-20.93 38.167-40.465" class="cls-7" transform="translate(-262.5 -324.056)"/>
                        <path id="패스_966" d="M446.578 364.942c1.988-3.631 5.541-6.074 8.858-8.546a131.006 131.006 0 0 0 29.416-30.479" class="cls-7" transform="translate(-248.348 -325.814)"/>
                        <path id="패스_967" d="M460.536 367.149q2.726-3.185 5.492-6.335 15.236-17.476 30.474-34.951" class="cls-7" transform="translate(-235.746 -325.863)"/>
                        <path id="패스_968" d="M472.382 360.441a147.368 147.368 0 0 1 22.381-24.585" class="cls-7" transform="translate(-225.051 -316.841)"/>
                        <path id="패스_969" d="M344.491 353.159a152.22 152.22 0 0 1 15.984 29.258 21.129 21.129 0 0 0 2.319 4.612c1.806 2.451 4.784 4.148 5.653 7.065" class="cls-7" transform="translate(-340.514 -301.22)"/>
                        <path id="패스_970" d="M357.713 353.689q11.214 21 22.573 41.925" class="cls-7" transform="translate(-328.577 -300.741)"/>
                        <path id="패스_971" d="M369.393 352.511a325.4 325.4 0 0 1 22.94 45.569" class="cls-7" transform="translate(-318.032 -301.805)"/>
                        <path id="패스_972" d="M382.7 353.263c7.385 6.544 12.235 15.411 16.937 24.088q5.023 9.273 10.051 18.549" class="cls-7" transform="translate(-306.017 -301.126)"/>
                        <path id="패스_973" d="M399.209 352.632c4.987 5.305 8.762 11.611 12.5 17.864q7.878 13.184 15.752 26.367" class="cls-7" transform="translate(-291.114 -301.695)"/>
                        <path id="패스_974" d="M413.936 354.051c2.569 2.559 4.161 5.906 5.788 9.147a216.623 216.623 0 0 0 21.152 33.88" class="cls-7" transform="translate(-277.818 -300.414)"/>
                        <path id="패스_975" d="M429.505 356.083q11.808 22.543 25.694 43.909" class="cls-7" transform="translate(-263.762 -298.58)"/>
                        <path id="패스_976" d="M443.774 356.215c6.8 3.834 11.893 10.1 16.208 16.606s8.057 13.432 13.042 19.445" class="cls-7" transform="translate(-250.879 -298.461)"/>
                        <path id="패스_977" d="M459.71 356.329c9.019 13.207 13.611 29.014 22.421 42.361" class="cls-7" transform="translate(-236.492 -298.358)"/>
                        <path id="패스_978" d="M469.567 357.065c6.281 5.771 11.1 12.932 15.852 20.016l8.728 13.01" class="cls-7" transform="translate(-227.593 -297.693)"/>
                        <path id="패스_979" d="M361.667 383.528c.234-.107.01-.516-.247-.478s-.409.293-.527.525c-4.236 8.216-8.473 16.44-12.13 24.933a109.812 109.812 0 0 0-4.152 11" class="cls-7" transform="translate(-340.407 -274.235)"/>
                        <path id="패스_980" d="M377.548 385.874c-1.4 1.416-2.023 3.4-2.715 5.271-5.391 14.528-17.58 25.549-24.13 39.594-.137.295-.377.647-.7.567s.076-.685.167-.373" class="cls-7" transform="translate(-335.644 -271.684)"/>
                        <path id="패스_981" d="M388.33 387.87c-8.439 12.776-16.922 25.63-23.13 39.63" class="cls-7" transform="translate(-321.822 -269.882)"/>
                        <path id="패스_982" d="M406.927 386.4l-4.517 7.87a67.115 67.115 0 0 1-4.223 6.73 93.765 93.765 0 0 1-6.42 7.276 120.187 120.187 0 0 0-15.1 20.33" class="cls-7" transform="translate(-311.466 -271.208)"/>
                        <path id="패스_983" d="M423.848 386.49c-6.04 16.785-19.614 29.576-29.094 44.684" class="cls-7" transform="translate(-295.136 -271.128)"/>
                        <path id="패스_985" d="M435.1 386.477a91.7 91.7 0 0 1-6.121 13.339c-6.477 11.581-15.48 21.814-20.233 34.205" class="cls-7" transform="translate(-282.5 -271.139)"/>
                        <path id="패스_986" d="M452 388.679a341.91 341.91 0 0 1-28.28 41.881" class="cls-7" transform="translate(-268.988 -269.151)"/>
                        <path id="패스_988" d="M468.465 387.491a98.369 98.369 0 0 1-5.891 11.984 130.5 130.5 0 0 1-8.294 11.339 196.388 196.388 0 0 0-13.43 19.865" class="cls-7" transform="translate(-253.52 -270.224)"/>
                        <path id="패스_989" d="M482.1 388.731c-9.978 14.068-16.579 30.765-29.189 42.536a1.674 1.674 0 0 0 1.956-.723" class="cls-7" transform="translate(-242.627 -269.104)"/>
                        <path id="패스_990" d="M490.221 391a207.284 207.284 0 0 1-24.215 42.111" class="cls-7" transform="translate(-230.808 -267.059)"/>
                        <path id="패스_991" d="M344.583 421.36c7.49 10.258 9.3 24.017 17.628 33.608" class="cls-7" transform="translate(-340.431 -239.646)"/>
                        <path id="패스_992" d="M351.061 418.151l17.181 19.719c4.095 4.7 8.218 9.438 11.3 14.857" class="cls-7" transform="translate(-334.583 -242.543)"/>
                        <path id="패스_993" d="M365.546 417.422q8.02 14.277 16.408 28.341a71.552 71.552 0 0 0 7.545 10.983c.171.194.417.405.655.306s-.008-.582-.158-.371" class="cls-7" transform="translate(-321.505 -243.202)"/>
                        <path id="패스_994" d="M377.1 418.559q11.608 18.772 23.212 37.546" class="cls-7" transform="translate(-311.073 -242.175)"/>
                        <path id="패스_995" d="M391.876 418.845q10.464 21.487 21.924 42.471" class="cls-7" transform="translate(-297.734 -241.917)"/>
                        <path id="패스_996" d="M406.346 421.06q12.31 18.421 23.169 37.763" class="cls-7" transform="translate(-284.67 -239.917)"/>
                        <path id="패스_997" d="M419.683 419.31a213.271 213.271 0 0 1 24.185 39.978l.44-1.654" class="cls-7" transform="translate(-272.629 -241.497)"/>
                        <path id="패스_998" d="M435.279 419.067q12.973 18.661 24.147 38.49" class="cls-7" transform="translate(-258.549 -241.717)"/>
                        <path id="패스_999" d="M449.906 420.069c11.552 10.987 19.314 25.268 26.885 39.3a.613.613 0 0 0-.462-.523" class="cls-7" transform="translate(-245.343 -240.812)"/>
                        <path id="패스_1000" d="M465.8 419.28c2.342 5.895 6.9 10.591 10.258 15.974 5.318 8.532 7.579 18.733 13.183 27.085a3.09 3.09 0 0 0-.442-2.306" class="cls-7" transform="translate(-230.995 -241.524)"/>
                        <path id="패스_1001" d="M478.873 417.436a86.26 86.26 0 0 0 5.672 12.408 43.13 43.13 0 0 0 4.959 6.776" class="cls-7" transform="translate(-219.191 -243.189)"/>
                        <path id="패스_1002" d="M480.011 417.252l10.5-14.541" class="cls-7" transform="translate(-218.164 -256.483)"/>
                        <path id="패스_1003" d="M342.4 482.326a350.776 350.776 0 0 1 18.583-33.613" class="cls-7" transform="translate(-342.401 -214.951)"/>
                        <path id="패스_1004" d="M351.411 484.723c1.536-3.572 4.205-6.511 6.643-9.544a91.87 91.87 0 0 0 13.051-21.911 24.269 24.269 0 0 1 3.591-6.734" class="cls-7" transform="translate(-334.267 -216.92)"/>
                        <path id="패스_1005" d="M363.03 480.843q9.9-16.235 21.161-31.579" class="cls-7" transform="translate(-323.777 -214.454)"/>
                        <path id="패스_1006" d="M373.478 481.14a92.291 92.291 0 0 0 10.846-12.266l15.323-19.559" class="cls-7" transform="translate(-314.344 -214.408)"/>
                        <path id="패스_1007" d="M387.944 482.443c-.051-2.122 1.286-4 2.563-5.689l20.817-27.637" class="cls-7" transform="translate(-301.285 -214.587)"/>
                        <path id="패스_1008" d="M401.335 482.177l25.161-32.77" class="cls-7" transform="translate(-289.194 -214.325)"/>
                        <path id="패스_1009" d="M415.242 479.439c2.293-3.438 5.448-6.194 8.441-9.044a141.091 141.091 0 0 0 18.37-21.355" class="cls-7" transform="translate(-276.639 -214.657)"/>
                        <path id="패스_1010" d="M429.714 481.5a278.833 278.833 0 0 0 26.343-32.559" class="cls-7" transform="translate(-263.573 -214.748)"/>
                        <path id="패스_1011" d="M446.519 480.315a163.6 163.6 0 0 0 29.827-31.884" class="cls-7" transform="translate(-248.401 -215.206)"/>
                        <path id="패스_1012" d="M460.849 480.779q11.591-15.844 24.546-30.626" class="cls-7" transform="translate(-235.464 -213.651)"/>
                        <path id="패스_1013" d="M473.417 478.61a43.418 43.418 0 0 1 2.919-4.021q8.851-11.263 17.7-22.52" class="cls-7" transform="translate(-224.117 -211.922)"/>
                    </g>
                </g>
            </g>
        </g>
        <path id="사각형_1972" fill="none" d="M0 0H1923V901H0z" transform="translate(-1 3209)"/>
    </g>
</svg>
