<svg xmlns="http://www.w3.org/2000/svg" width="35.36" height="35.36" viewBox="0 0 35.36 35.36">
    <defs>
        <style>
            .cls-1{fill:#939393}
        </style>
    </defs>
    <g id="그룹_2288">
        <path id="패스_1860" d="M41.39 20.585a17.68 17.68 0 1 0 17.68 17.68 17.7 17.7 0 0 0-17.68-17.68zm0 32.627a14.947 14.947 0 1 1 14.946-14.947A14.964 14.964 0 0 1 41.39 53.212z" class="cls-1" transform="translate(-23.71 -20.585)"/>
        <path id="패스_1861" d="M49.558 60.727a1.367 1.367 0 0 0 1.933 0l.536-.536.536.536a1.367 1.367 0 0 0 1.933-1.933l-.535-.535.535-.535a1.367 1.367 0 0 0-1.933-1.933l-.536.536-.536-.536a1.367 1.367 0 1 0-1.933 1.933l.535.535-.535.535a1.367 1.367 0 0 0 0 1.933z" class="cls-1" transform="translate(-41.429 -44.819)"/>
        <path id="패스_1862" d="M95.433 60.727a1.367 1.367 0 0 0 1.933 0l.536-.536.536.536a1.367 1.367 0 1 0 1.933-1.933l-.535-.535.535-.535a1.367 1.367 0 0 0-1.933-1.933l-.536.536-.536-.536a1.367 1.367 0 0 0-1.933 1.933l.535.535-.535.535a1.367 1.367 0 0 0 0 1.933z" class="cls-1" transform="translate(-73.371 -44.819)"/>
        <path id="패스_1863" d="M66.219 92.742H47.36a1.367 1.367 0 1 0 0 2.733h18.859a1.367 1.367 0 1 0 0-2.733z" class="cls-1" transform="translate(-39.226 -70.827)"/>
    </g>
</svg>
