<svg xmlns="http://www.w3.org/2000/svg" width="682.952" height="291.331" viewBox="0 0 682.952 291.331">
    <defs>
        <style>
            .cls-1{fill:#d2479d}.cls-3,.cls-4,.cls-7{fill:none}.cls-3,.cls-4{stroke:#070707}.cls-4{stroke-miterlimit:10}.cls-3,.cls-7{stroke-width:10px}.cls-3,.cls-4,.cls-7{stroke-linecap:round}.cls-3,.cls-7{stroke-linejoin:round}.cls-4{stroke-width:13px}.cls-7{stroke:#000}
        </style>
    </defs>
    <g id="그룹_2998" transform="translate(-131.125 -3390.688)">
        <g id="그룹_2772" transform="translate(169.172 3437.491)">
            <path id="패스_1014" d="M3393.632 406.53l2.32-1.763q-.5-10.325-.995-20.651l-77.929 2.863 1.591 11.133s9.3 2.583 14.631 7.634c5.189 4.919 6.134 11.719 6.362 13.36 1.376 9.915-3.456 20.8-12.088 25.445a20.831 20.831 0 0 1-7.3 2.3l-.328 20.606 79.2-.636-.318-18.13c-1.381-.776-11.41-6.628-13.359-18.448a27.745 27.745 0 0 1 8.218-23.709z" class="cls-1" transform="translate(-3241.092 -360.137)"/>
            <path id="패스_1015" d="M3337.438 556.866l20.052-.873c3.917-8.728 1.315-17.966-4.726-21.6-5.244-3.158-11.381-1.073-12.489-.676l-9.788-2.363 5.738-22.615-31.392-23.291 121.179 1.351 8.1-26.666q8.437 7.764 16.877 15.527l-21.266 33.08 13.485 17.25a42.2 42.2 0 0 1-9.309 5.12c-8.664 3.416-13.375 1.874-16.757 5.121-2.092 2.007-4.069 6.225-1.862 16.291l90.3.466-24.2-46.546a64.161 64.161 0 0 0 14.429-29.325c4.932-25.168-7.71-44.709-10.706-49.339-19.693-30.438-55.852-33.642-60.51-33.978l-2.328-27a237.33 237.33 0 0 0-90.764.931 230.2 230.2 0 0 0-31.186 8.844l-1.862 25.135c-4.992 2.274-37.5 17.716-46.081 52.6-1.776 7.223-7.568 30.772 6.982 51.2 10.087 14.161 24.571 19.272 30.255 20.945l-7.912 29.325 55.742 1.091c-1.588-9.345-4.9-12.788-7.8-14.124-7.322-3.369-17.538 4.137-20.48.465-.822-1.026-.652-2.4-.465-3.724 1.687-11.958 4.616-18.6 4.655-22.342.05-4.938-4.855-12.022-27.927-20.945" class="cls-1" transform="translate(-3249.732 -362.866)"/>
            <path id="패스_1016" d="M3439.912 471.007q-4.98 12.8-9.959 25.61 9.136 12.227 18.275 24.454a46.591 46.591 0 0 1-13.021 3.762c-6.676.9-10.339-.122-12.73 2.314-1.482 1.511-2.711 4.591-.865 11.629" class="cls-1" transform="translate(-3227.783 -348.981)"/>
            <path id="패스_1017" d="M3301.323 434.011c.816.886 8.371 8.813 19.679 7.6a23.659 23.659 0 0 0 19.417-15.43" class="cls-1" transform="translate(-3243.108 -354.737)"/>
            <path id="패스_1018" d="M3304.5 411.515a15.6 15.6 0 0 1 5.308-11.5 15.32 15.32 0 0 1 10.426-3.492" class="cls-1" transform="translate(-3242.701 -358.547)"/>
            <path id="패스_1019" d="M3412.037 434.52c-.472.692-6.692 9.508-16.339 8.948a16.519 16.519 0 0 1-7.97-2.686" class="cls-1" transform="translate(-3232.015 -353.666)"/>
            <path id="패스_1020" d="M3419.917 418.176c-.526-11.094-8.06-19.73-16.97-20.941-8.543-1.162-15.037 4.954-15.976 5.867" class="cls-1" transform="translate(-3232.112 -358.472)"/>
        </g>
        <g id="그룹_2773" transform="translate(169.172 3437.491)">
            <path id="패스_1014-2" fill="none" stroke="#070707" stroke-miterlimit="10" stroke-width="10px" d="M3393.632 406.53l2.32-1.763q-.5-10.325-.995-20.651l-77.929 2.863 1.591 11.133s9.3 2.583 14.631 7.634c5.189 4.919 6.134 11.719 6.362 13.36 1.376 9.915-3.456 20.8-12.088 25.445a20.831 20.831 0 0 1-7.3 2.3l-.328 20.606 79.2-.636-.318-18.13c-1.381-.776-11.41-6.628-13.359-18.448a27.745 27.745 0 0 1 8.218-23.709z" transform="translate(-3241.092 -360.137)"/>
            <path id="패스_1015-2" d="M3337.438 556.866l20.052-.873c3.917-8.728 1.315-17.966-4.726-21.6-5.244-3.158-11.381-1.073-12.489-.676l-9.788-2.363 5.738-22.615-31.392-23.291 121.179 1.351 8.1-26.666q8.437 7.764 16.877 15.527l-21.266 33.08 13.485 17.25a42.2 42.2 0 0 1-9.309 5.12c-8.664 3.416-13.375 1.874-16.757 5.121-2.092 2.007-4.069 6.225-1.862 16.291l90.3.466-24.2-46.546a64.161 64.161 0 0 0 14.429-29.325c4.932-25.168-7.71-44.709-10.706-49.339-19.693-30.438-55.852-33.642-60.51-33.978l-2.328-27a237.33 237.33 0 0 0-90.764.931 230.2 230.2 0 0 0-31.186 8.844l-1.862 25.135c-4.992 2.274-37.5 17.716-46.081 52.6-1.776 7.223-7.568 30.772 6.982 51.2 10.087 14.161 24.571 19.272 30.255 20.945l-7.912 29.325 55.742 1.091c-1.588-9.345-4.9-12.788-7.8-14.124-7.322-3.369-17.538 4.137-20.48.465-.822-1.026-.652-2.4-.465-3.724 1.687-11.958 4.616-18.6 4.655-22.342.05-4.938-4.855-12.022-27.927-20.945" class="cls-3" transform="translate(-3249.732 -362.866)"/>
            <path id="패스_1016-2" d="M3439.912 471.007q-4.98 12.8-9.959 25.61 9.136 12.227 18.275 24.454a46.591 46.591 0 0 1-13.021 3.762c-6.676.9-10.339-.122-12.73 2.314-1.482 1.511-2.711 4.591-.865 11.629" class="cls-3" transform="translate(-3227.783 -348.981)"/>
            <path id="패스_1017-2" d="M3301.323 434.011c.816.886 8.371 8.813 19.679 7.6a23.659 23.659 0 0 0 19.417-15.43" class="cls-4" transform="translate(-3243.108 -354.737)"/>
            <path id="패스_1018-2" d="M3304.5 411.515a15.6 15.6 0 0 1 5.308-11.5 15.32 15.32 0 0 1 10.426-3.492" class="cls-4" transform="translate(-3242.701 -358.547)"/>
            <path id="패스_1019-2" fill="none" stroke="#070707" stroke-linecap="round" stroke-miterlimit="10" stroke-width="10px" d="M3412.037 434.52c-.472.692-6.692 9.508-16.339 8.948a16.519 16.519 0 0 1-7.97-2.686" transform="translate(-3232.015 -353.666)"/>
            <path id="패스_1020-2" d="M3419.917 418.176c-.526-11.094-8.06-19.73-16.97-20.941-8.543-1.162-15.037 4.954-15.976 5.867" class="cls-4" transform="translate(-3232.112 -358.472)"/>
        </g>
        <g id="그룹_2774" transform="translate(137.625 3397.188)">
            <path id="사각형_106-2" fill="none" stroke="#000" stroke-linecap="round" stroke-linejoin="round" stroke-width="13px" d="M0 0H315.958V278.331H0z"/>
        </g>
        <g id="그룹_2775" transform="translate(137.625 3397.188)">
            <path id="사각형_106-2-2" d="M0 0H315.958V278.331H0z" class="cls-7"/>
        </g>
        <path id="패스_2019" d="M336.546 44.094c.833 11.012 3.788 17.86 5.974 26.6q5.021 20.058 10.036 40.117c.841-9.933 4.573-19.883 5.414-29.814.814-9.586 4.908-26.73 7.281-37.19 6.577 17.538 2.953 50.13 14.354 67.516 2.912-8.583 3.276-19.379 5.825-27.751 3.4-11.175 8.87-26.307 9.4-37.512.131 22.293 7.452 40.516 16.682 63.869 5.121-17.345 3.876-27.072 6.164-46.812.442-3.819 3.35-12.682 5.846-17.831 1.708 17.168 13.055 44.565 20.335 65.48 5.019-15.893 8.972-42.927 14.172-65.242 1.9 12.806 8.112 23.888 12.274 43.628 1.107 5.263 2.7 14.59 8.319 21.456 2.4-2.844 4-10.26 4.711-13.124 4.442-17.919 7.352-31.362 13.354-51.532 5.753 3.8 12.654 47.06 20.486 65.4-1.715-12.613 2.49-26.087 7.214-38.653 3.1-8.259 5.822-14.018 8.913-23.784 2.869 4.594 9.6 48.818 16.048 62.437 2.933-2.183 17.155-46.367 26.625-63.685-.171-.465 8.207 50.85 8.323 65.084 1.5-2.483 5.786-17.2 6.238-16.88 7.19-13.589 10.4-32.469 19.97-48.348 4.991 19.74 15.129 47.55 12.689 65.227 8.787-18.837 11.185-45.818 19.968-64.655 1.641 18.212 9.3 45.693 10.29 64.655" class="cls-7" transform="translate(155.375 3547.077)"/>
    </g>
</svg>
