<svg xmlns="http://www.w3.org/2000/svg" width="1000.757" height="246.217" viewBox="0 0 1000.757 246.217">
  <defs>
    <style>
      .cls-1 {
        opacity: 0.5;
      }

      .cls-2 {
        fill: #f29551;
        opacity: 0.49;
      }

      .cls-3, .cls-4 {
        fill: none;
      }

      .cls-3 {
        stroke: #4b4b4b;
        stroke-linecap: round;
        stroke-linejoin: round;
        stroke-width: 5px;
      }
    </style>
  </defs>
  <g id="그룹_4374" data-name="그룹 4374" class="cls-1" transform="translate(-39.621 -1605.238)">
    <g id="그룹_4373" data-name="그룹 4373">
      <rect id="사각형_1948" data-name="사각형 1948" class="cls-2" width="92.608" height="92.608" rx="20" transform="translate(857.565 1620.488) rotate(45)"/>
      <rect id="사각형_1949" data-name="사각형 1949" class="cls-2" width="148.362" height="148.362" rx="20" transform="translate(735.662 1605.238) rotate(45)"/>
    </g>
    <path id="패스_2019" data-name="패스 2019" class="cls-3" d="M336.546,43.89c.367,3.17,1.672,5.14,2.636,7.657q2.216,5.773,4.429,11.547c.371-2.859,2.018-5.723,2.389-8.581.359-2.759,2.166-7.694,3.214-10.7,2.9,5.048,1.3,14.429,6.335,19.433,1.285-2.47,1.446-5.578,2.571-7.988,1.5-3.217,3.915-7.572,4.147-10.8.058,6.417,3.289,11.662,7.362,18.383,2.26-4.992,1.71-7.792,2.72-13.474a17.2,17.2,0,0,1,2.58-5.132c.754,4.941,5.761,12.827,8.974,18.847,2.215-4.574,3.96-12.356,6.255-18.778.841,3.686,3.58,6.876,5.417,12.557a11.708,11.708,0,0,0,3.671,6.176c1.059-.819,1.767-2.953,2.079-3.777,1.96-5.157,3.245-9.027,5.893-14.832,2.539,1.094,5.585,13.545,9.041,18.824-.757-3.63,1.1-7.508,3.184-11.125,1.368-2.377,2.569-4.035,3.934-6.846,1.266,1.322,4.235,14.051,7.082,17.971,1.294-.628,7.571-13.346,11.75-18.33-.075-.134,3.622,14.636,3.673,18.733.664-.715,2.553-4.952,2.753-4.858,3.173-3.911,4.59-9.345,8.813-13.916,2.2,5.682,6.677,13.686,5.6,18.774,3.878-5.422,4.936-13.188,8.813-18.61.724,5.242,4.105,13.152,4.541,18.61" transform="translate(-275.665 1770.746)"/>
    <rect id="사각형_1970" data-name="사각형 1970" class="cls-4" width="1000.757" height="237.709" transform="translate(39.621 1613.746)"/>
  </g>
</svg>
