<svg xmlns="http://www.w3.org/2000/svg" width="1784" height="481" viewBox="0 0 1784 481">
    <g>
        <g transform="translate(-17847 -4254) translate(17784.967 801)">
            <rect width="196.471" height="196.471" fill="#c690e1" opacity="0.49" rx="54" transform="rotate(45 -3397.098 3698.962)"/>
            <rect width="314.709" height="314.709" fill="#8830cb" opacity="0.49" rx="54" transform="rotate(45 -3487.138 3371.39)"/>
        </g>
        <path fill="none" stroke="#4b4b4b" stroke-linecap="round" stroke-linejoin="round" stroke-width="10px" d="M336.546 43.983c.778 6.75 3.541 10.947 5.585 16.306l9.383 24.59c.786-6.088 4.276-12.188 5.062-18.275.761-5.876 4.589-16.385 6.808-22.8 6.149 10.75 2.761 30.728 13.42 41.385 2.722-5.261 3.063-11.879 5.446-17.01 3.181-6.85 8.293-16.125 8.786-22.994.123 13.665 6.967 24.835 15.6 39.149 4.788-10.632 3.623-16.594 5.763-28.694.413-2.341 3.133-7.774 5.466-10.93 1.6 10.523 12.206 27.317 19.011 40.137 4.692-9.742 8.388-26.313 13.25-39.991C451.9 52.709 457.707 59.5 461.6 71.6c1.035 3.226 2.529 8.943 7.778 13.152 2.244-1.743 3.743-6.289 4.4-8.044 4.153-10.983 6.874-19.224 12.485-31.587 5.379 2.33 11.831 28.846 19.154 40.088-1.6-7.731 2.328-15.99 6.745-23.693 2.9-5.063 5.443-8.592 8.333-14.579 2.682 2.816 8.973 29.924 15 38.271 2.742-1.338 16.039-28.421 24.892-39.036-.16-.285 7.673 31.169 7.781 39.894 1.406-1.522 5.409-10.545 5.832-10.347 6.722-8.329 9.724-19.9 18.671-29.635 4.667 12.1 14.145 29.147 11.863 39.982 8.223-11.543 10.466-28.081 18.677-39.628 1.534 11.163 8.7 28.008 9.62 39.631" transform="translate(-17847 -4254) translate(17569.469 4605.449)"/>
        <path fill="none" d="M0 0H1784V481H0z" transform="translate(-17847 -4254) translate(17847 4254)"/>
    </g>
</svg>
