<svg xmlns="http://www.w3.org/2000/svg" width="519.316" height="159.258" viewBox="0 0 519.316 159.258">
    <defs>
        <style>
            .cls-1{fill:none;stroke:#000;stroke-linecap:round;stroke-linejoin:round;stroke-width:10px}
        </style>
    </defs>
    <g id="그룹_2769" transform="translate(6.554 5)">
        <path id="패스_956" d="M341.108 89.424a380.418 380.418 0 0 0 14.845 48.911c4.017-11.266 22.759-38.129 26.779-49.4 9.928 14.581 14.06 35.758 22.459 49.588 5.181-11.635 10.985-36.377 16.413-49.206 9.768 11.976 16.843 37.382 24.621 49.588 7.341-13.542 12.351-36.432 14.683-50.732 4.589 14.03 3.933 35.733 20.733 51.113 6.477-12.779 17.317-38.261 19.867-51.3 11.664 13.923-.429 37.762 19.005 51.494 7.344-12.777 9.367-37.067 16.843-51.111 1.765 15.2 10.368 29.371 23.323 50.922 8.208-12.207 1.773-37.5 17.277-51.3 10.879 12.779 7.723 35.285 15.549 51.3 7.773-16.02 12.957-34.9 26.349-50.541.429 16.592-4.112 34.448 2.157 51.113-1.927-13.12 18.576-35.855 24.621-51.113 9.069 13.732 5.916 38.376 13.387 51.685 7.726-4.612 20.4-30.152 17.712-25.558-.4.67 6.474-12.777 11.659-25.329 5.184 17.892 10.458 35.285 10.368 51.65 4.716-15.757 17.676-36.763 37.119-53.3-4.909 17.7-3.557 35.429-2.2 53.144 2.045-16.853 21.233-36.277 32.459-49.817-1.947 2.78 4.272 13.421 5.184 16.211 3.9 11.91 4.741 23.006 8.64 34.916 4.385-16.789 6.233-31.4 24.448-50.244 4.379 1.772 1.01 33.027 4.219 50.244-1.161-14.6 18.4-34.478 37.845-50.175 1.745 13.671-1.293 35.857-.842 48.248" class="cls-1" transform="translate(-340.172 -87.901)"/>
        <path id="패스_958" d="M338.795 122.4c8.8 20.777 14.558 47.389 25.888 68.622 6.778-16.735 8.386-48.256 22.226-65.8 5.149 21.313 9.217 43.342 14.634 65.084-1.49-19.792 9.487-40.911 18.161-64.512 7.046 20.171 8.672 39.909 15.448 64.512 1.692-20.282 8.076-44.356 16.835-64.579-1.321 20.611 9.494 44.776 20.295 65.294 12.707-19.837 25.4-43.272 38.113-63.109 4.708 17.622 8.675 44.783 19.612 63.109 6.015-18.843 13.547-47.055 31.171-65.657 6.311 20.194 13.387 45.4 13.282 65.084 5.389-18.319 6.773-48.92 24.393-66.084 8.13 20.167 9.238 47.835 19.023 66.661 4.776-18.852 25.693-44.921 30.842-67.235 13.012 15.164 4.229 51.521 7.05 67.235-.807-14.322 14.634-29.757 20-54.219.563-2.555 4.661-8.581 6.56-12.015 4.274 17.531 7.588 48.635 12.737 66.234 1.624-6.234 2.68-11.132 3.035-12.732 3.53-15.881 10.787-35.049 19.189-53.929 1.634 16.849 8.938 49.808 10.571 66.661-3.161-17.86 5.689-47.781 12.467-66.661 8.879 20.1.427 48.122 4.065 67.8 1.159-1.071 3.173-7.206 3.523-8.3 6.1-19.063 10.155-41.3 16.263-60.365" class="cls-1" transform="translate(-338.795 -42.909)"/>
    </g>
</svg>
