<svg xmlns="http://www.w3.org/2000/svg" width="286.009" height="281.918" viewBox="0 0 286.009 281.918">
    <defs>
        <style>
            .cls-1{fill:none;stroke:#000;stroke-linecap:round;stroke-linejoin:round;stroke-width:10px}
        </style>
    </defs>
    <g id="그룹_3000" transform="translate(-1495.596 -3241.314)">
        <g id="그룹_2999">
            <g id="그룹_2770" transform="translate(1502.273 3248.369)">
                <g id="그룹_1732">
                    <path id="패스_959" d="M344.145 359.425a158.5 158.5 0 0 1 25.467-32.055" class="cls-1" transform="translate(-340.827 -324.503)"/>
                    <path id="패스_960" d="M357.35 359.438q12.7-15.376 25.408-30.748" class="cls-1" transform="translate(-328.905 -323.311)"/>
                    <path id="패스_961" d="M371.653 359.572q8.1-8.748 16.2-17.5 7.333-7.918 14.659-15.833" class="cls-1" transform="translate(-315.992 -325.523)"/>
                    <path id="패스_962" d="M383.8 361.988a462.829 462.829 0 0 0 32.123-33.541" class="cls-1" transform="translate(-305.027 -323.53)"/>
                    <path id="패스_963" d="M401.9 361.714q17.616-17.391 35.231-34.776c.278-.272.658-.567 1.016-.409s.015.885-.236.588" class="cls-1" transform="translate(-288.687 -325.302)"/>
                    <path id="패스_964" d="M416.057 361.856c11.506-11.961 26.19-20.834 36.156-34.108" class="cls-1" transform="translate(-275.903 -324.161)"/>
                    <path id="패스_965" d="M430.9 368.329q18.327-20.93 38.167-40.465" class="cls-1" transform="translate(-262.5 -324.056)"/>
                    <path id="패스_966" d="M446.578 364.942c1.988-3.631 5.541-6.074 8.858-8.546a131.006 131.006 0 0 0 29.416-30.479" class="cls-1" transform="translate(-248.348 -325.814)"/>
                    <path id="패스_967" d="M460.536 367.149q2.726-3.185 5.492-6.335 15.236-17.476 30.474-34.951" class="cls-1" transform="translate(-235.746 -325.863)"/>
                    <path id="패스_968" d="M472.382 360.441a147.368 147.368 0 0 1 22.381-24.585" class="cls-1" transform="translate(-225.051 -316.841)"/>
                    <path id="패스_969" d="M344.491 353.159a152.22 152.22 0 0 1 15.984 29.258 21.129 21.129 0 0 0 2.319 4.612c1.806 2.451 4.784 4.148 5.653 7.065" class="cls-1" transform="translate(-340.514 -301.22)"/>
                    <path id="패스_970" d="M357.713 353.689q11.214 21 22.573 41.925" class="cls-1" transform="translate(-328.577 -300.741)"/>
                    <path id="패스_971" d="M369.393 352.511a325.4 325.4 0 0 1 22.94 45.569" class="cls-1" transform="translate(-318.032 -301.805)"/>
                    <path id="패스_972" d="M382.7 353.263c7.385 6.544 12.235 15.411 16.937 24.088q5.023 9.273 10.051 18.549" class="cls-1" transform="translate(-306.017 -301.126)"/>
                    <path id="패스_973" d="M399.209 352.632c4.987 5.305 8.762 11.611 12.5 17.864q7.878 13.184 15.752 26.367" class="cls-1" transform="translate(-291.114 -301.695)"/>
                    <path id="패스_974" d="M413.936 354.051c2.569 2.559 4.161 5.906 5.788 9.147a216.623 216.623 0 0 0 21.152 33.88" class="cls-1" transform="translate(-277.818 -300.414)"/>
                    <path id="패스_975" d="M429.505 356.083q11.808 22.543 25.694 43.909" class="cls-1" transform="translate(-263.762 -298.58)"/>
                    <path id="패스_976" d="M443.774 356.215c6.8 3.834 11.893 10.1 16.208 16.606s8.057 13.432 13.042 19.445" class="cls-1" transform="translate(-250.879 -298.461)"/>
                    <path id="패스_977" d="M459.71 356.329c9.019 13.207 13.611 29.014 22.421 42.361" class="cls-1" transform="translate(-236.492 -298.358)"/>
                    <path id="패스_978" d="M469.567 357.065c6.281 5.771 11.1 12.932 15.852 20.016l8.728 13.01" class="cls-1" transform="translate(-227.593 -297.693)"/>
                    <path id="패스_979" d="M361.667 383.528c.234-.107.01-.516-.247-.478s-.409.293-.527.525c-4.236 8.216-8.473 16.44-12.13 24.933a109.812 109.812 0 0 0-4.152 11" class="cls-1" transform="translate(-340.407 -274.235)"/>
                    <path id="패스_980" d="M377.548 385.874c-1.4 1.416-2.023 3.4-2.715 5.271-5.391 14.528-17.58 25.549-24.13 39.594-.137.295-.377.647-.7.567s.076-.685.167-.373" class="cls-1" transform="translate(-335.644 -271.684)"/>
                    <path id="패스_981" d="M388.33 387.87c-8.439 12.776-16.922 25.63-23.13 39.63" class="cls-1" transform="translate(-321.822 -269.882)"/>
                    <path id="패스_982" d="M406.927 386.4l-4.517 7.87a67.115 67.115 0 0 1-4.223 6.73 93.765 93.765 0 0 1-6.42 7.276 120.187 120.187 0 0 0-15.1 20.33" class="cls-1" transform="translate(-311.466 -271.208)"/>
                    <path id="패스_983" d="M423.848 386.49c-6.04 16.785-19.614 29.576-29.094 44.684" class="cls-1" transform="translate(-295.136 -271.128)"/>
                    <path id="패스_985" d="M435.1 386.477a91.7 91.7 0 0 1-6.121 13.339c-6.477 11.581-15.48 21.814-20.233 34.205" class="cls-1" transform="translate(-282.5 -271.139)"/>
                    <path id="패스_986" d="M452 388.679a341.91 341.91 0 0 1-28.28 41.881" class="cls-1" transform="translate(-268.988 -269.151)"/>
                    <path id="패스_988" d="M468.465 387.491a98.369 98.369 0 0 1-5.891 11.984 130.5 130.5 0 0 1-8.294 11.339 196.388 196.388 0 0 0-13.43 19.865" class="cls-1" transform="translate(-253.52 -270.224)"/>
                    <path id="패스_989" d="M482.1 388.731c-9.978 14.068-16.579 30.765-29.189 42.536a1.674 1.674 0 0 0 1.956-.723" class="cls-1" transform="translate(-242.627 -269.104)"/>
                    <path id="패스_990" d="M490.221 391a207.284 207.284 0 0 1-24.215 42.111" class="cls-1" transform="translate(-230.808 -267.059)"/>
                    <path id="패스_991" d="M344.583 421.36c7.49 10.258 9.3 24.017 17.628 33.608" class="cls-1" transform="translate(-340.431 -239.646)"/>
                    <path id="패스_992" d="M351.061 418.151l17.181 19.719c4.095 4.7 8.218 9.438 11.3 14.857" class="cls-1" transform="translate(-334.583 -242.543)"/>
                    <path id="패스_993" d="M365.546 417.422q8.02 14.277 16.408 28.341a71.552 71.552 0 0 0 7.545 10.983c.171.194.417.405.655.306s-.008-.582-.158-.371" class="cls-1" transform="translate(-321.505 -243.202)"/>
                    <path id="패스_994" d="M377.1 418.559q11.608 18.772 23.212 37.546" class="cls-1" transform="translate(-311.073 -242.175)"/>
                    <path id="패스_995" d="M391.876 418.845q10.464 21.487 21.924 42.471" class="cls-1" transform="translate(-297.734 -241.917)"/>
                    <path id="패스_996" d="M406.346 421.06q12.31 18.421 23.169 37.763" class="cls-1" transform="translate(-284.67 -239.917)"/>
                    <path id="패스_997" d="M419.683 419.31a213.271 213.271 0 0 1 24.185 39.978l.44-1.654" class="cls-1" transform="translate(-272.629 -241.497)"/>
                    <path id="패스_998" d="M435.279 419.067q12.973 18.661 24.147 38.49" class="cls-1" transform="translate(-258.549 -241.717)"/>
                    <path id="패스_999" d="M449.906 420.069c11.552 10.987 19.314 25.268 26.885 39.3a.613.613 0 0 0-.462-.523" class="cls-1" transform="translate(-245.343 -240.812)"/>
                    <path id="패스_1000" d="M465.8 419.28c2.342 5.895 6.9 10.591 10.258 15.974 5.318 8.532 7.579 18.733 13.183 27.085a3.09 3.09 0 0 0-.442-2.306" class="cls-1" transform="translate(-230.995 -241.524)"/>
                    <path id="패스_1001" d="M478.873 417.436a86.26 86.26 0 0 0 5.672 12.408 43.13 43.13 0 0 0 4.959 6.776" class="cls-1" transform="translate(-219.191 -243.189)"/>
                    <path id="패스_1002" d="M480.011 417.252l10.5-14.541" class="cls-1" transform="translate(-218.164 -256.483)"/>
                    <path id="패스_1003" d="M342.4 482.326a350.776 350.776 0 0 1 18.583-33.613" class="cls-1" transform="translate(-342.401 -214.951)"/>
                    <path id="패스_1004" d="M351.411 484.723c1.536-3.572 4.205-6.511 6.643-9.544a91.87 91.87 0 0 0 13.051-21.911 24.269 24.269 0 0 1 3.591-6.734" class="cls-1" transform="translate(-334.267 -216.92)"/>
                    <path id="패스_1005" d="M363.03 480.843q9.9-16.235 21.161-31.579" class="cls-1" transform="translate(-323.777 -214.454)"/>
                    <path id="패스_1006" d="M373.478 481.14a92.291 92.291 0 0 0 10.846-12.266l15.323-19.559" class="cls-1" transform="translate(-314.344 -214.408)"/>
                    <path id="패스_1007" d="M387.944 482.443c-.051-2.122 1.286-4 2.563-5.689l20.817-27.637" class="cls-1" transform="translate(-301.285 -214.587)"/>
                    <path id="패스_1008" d="M401.335 482.177l25.161-32.77" class="cls-1" transform="translate(-289.194 -214.325)"/>
                    <path id="패스_1009" d="M415.242 479.439c2.293-3.438 5.448-6.194 8.441-9.044a141.091 141.091 0 0 0 18.37-21.355" class="cls-1" transform="translate(-276.639 -214.657)"/>
                    <path id="패스_1010" d="M429.714 481.5a278.833 278.833 0 0 0 26.343-32.559" class="cls-1" transform="translate(-263.573 -214.748)"/>
                    <path id="패스_1011" d="M446.519 480.315a163.6 163.6 0 0 0 29.827-31.884" class="cls-1" transform="translate(-248.401 -215.206)"/>
                    <path id="패스_1012" d="M460.849 480.779q11.591-15.844 24.546-30.626" class="cls-1" transform="translate(-235.464 -213.651)"/>
                    <path id="패스_1013" d="M473.417 478.61a43.418 43.418 0 0 1 2.919-4.021q8.851-11.263 17.7-22.52" class="cls-1" transform="translate(-224.117 -211.922)"/>
                </g>
            </g>
        </g>
    </g>
</svg>
