<svg id="레이어_1" data-name="레이어 1" xmlns="http://www.w3.org/2000/svg" xmlns:xlink="http://www.w3.org/1999/xlink" viewBox="0 0 48 48"><defs><style>.cls-1{fill:none;}.cls-2{clip-path:url(#clip-path);}.cls-3{fill:#d9dbe6;}</style><clipPath id="clip-path"><rect class="cls-1" width="48" height="48"/></clipPath></defs><g class="cls-2"><g id="icon_chat-room" data-name="icon chat-room"><path id="합치기_11" data-name="합치기 11" class="cls-3" d="M30,39H15l5.48-6H39a3,3,0,0,0,3-3V12h3a3,3,0,0,1,3,3V36a3,3,0,0,1-3,3H39v9ZM9,27H3a3,3,0,0,1-3-3V3A3,3,0,0,1,3,0H33a3,3,0,0,1,3,3V24a3,3,0,0,1-3,3H18L9,36Z"/></g></g></svg>