<svg id="레이어_1" data-name="레이어 1" xmlns="http://www.w3.org/2000/svg" viewBox="0 0 48 48"><defs><style>.cls-1{fill:#d9dbe6;}</style></defs><path id="Search_Icon" data-name="Search Icon" class="cls-1" d="M38.1,33.69a20.38,20.38,0,0,0,4.2-12.52A21.06,21.06,0,0,0,21.35,0H21.3A21.32,21.32,0,0,0,0,21.17,21.32,21.32,0,0,0,21.3,42.34a20,20,0,0,0,12.6-4.18l9,9a2.92,2.92,0,0,0,4.12.08l.08-.08a2.87,2.87,0,0,0,.12-4.06l-.12-.12ZM21.3,36.08A15.07,15.07,0,0,1,6,21.25v-.08a15.3,15.3,0,1,1,30.6,0A15.07,15.07,0,0,1,21.38,36.08Z"/></svg>