<svg id="레이어_1" data-name="레이어 1" xmlns="http://www.w3.org/2000/svg" xmlns:xlink="http://www.w3.org/1999/xlink" viewBox="0 0 48 48"><defs><style>.cls-1{fill:none;}.cls-2{clip-path:url(#clip-path);}.cls-3{fill:#d9dbe6;}</style><clipPath id="clip-path"><rect class="cls-1" width="48" height="48"/></clipPath></defs><g class="cls-2"><g id="icon_emoji" data-name="icon emoji"><path id="패스_364" data-name="패스 364" class="cls-3" d="M24,0A24,24,0,1,0,48,24,24,24,0,0,0,24,0ZM15,16a3,3,0,1,1-3,3A3.08,3.08,0,0,1,15,16ZM35.4,33.4A15.89,15.89,0,0,1,24,38a15.89,15.89,0,0,1-11.4-4.6,2,2,0,1,1,2.77-2.83l0,0a12.58,12.58,0,0,0,17.2,0,2,2,0,0,1,2.8,2.8ZM33,22a3,3,0,1,1,3-3A3.08,3.08,0,0,1,33,22Z"/></g></g></svg>